<svg width="1200" height="600" viewBox="0 0 1200 600" fill="none" xmlns="http://www.w3.org/2000/svg">
  <rect width="1200" height="600" fill="#090513"/>
  <g opacity="0.25">
    <circle cx="600" cy="300" r="280" fill="#35215F"/>
    <circle cx="200" cy="240" r="120" fill="#35215F"/>
    <circle cx="950" cy="280" r="160" fill="#35215F"/>
  </g>
  <path d="M90 310C84 280 112 246 166 225C220 204 274 204 304 214C334 224 352 244 360 272C368 300 358 336 332 368C306 400 262 428 218 426C174 424 129 400 110 370C91 340 96 320 90 310Z" fill="#1C1730"/>
  <path d="M392 175C436 131 522 99 622 90C722 81 836 96 930 128C1024 160 1099 208 1122 254C1145 300 1115 344 1064 374C1013 404 941 420 860 420C779 420 690 404 606 382C522 360 444 334 414 306C384 278 348 219 392 175Z" fill="#1C1730"/>
  <path d="M520 370C556 344 622 330 686 336C750 342 812 368 846 402C880 436 886 478 852 506C818 534 744 548 672 540C600 532 530 502 510 470C490 438 484 396 520 370Z" fill="#1C1730"/>
  <path d="M900 360C932 338 988 330 1044 338C1100 346 1156 370 1180 398C1204 426 1195 458 1165 480C1135 502 1083 514 1034 508C985 502 939 478 920 452C901 426 868 382 900 360Z" fill="#1C1730"/>
  <path d="M640 420C674 394 736 380 796 388C856 396 914 426 942 460C970 494 966 532 930 556C894 580 826 590 760 580C694 570 630 538 608 504C586 470 606 446 640 420Z" fill="#1C1730"/>
  <g opacity="0.2" stroke="#6E54FF" stroke-width="1.2">
    <path d="M0 260L1200 260" />
    <path d="M0 340L1200 340" />
    <path d="M300 0L300 600" />
    <path d="M600 0L600 600" />
    <path d="M900 0L900 600" />
  </g>
  <g opacity="0.3">
    <circle cx="220" cy="180" r="8" fill="#6E54FF" />
    <circle cx="340" cy="260" r="8" fill="#6E54FF" />
    <circle cx="520" cy="160" r="8" fill="#6E54FF" />
    <circle cx="760" cy="170" r="10" fill="#6E54FF" />
    <circle cx="880" cy="240" r="10" fill="#6E54FF" />
    <circle cx="980" cy="320" r="12" fill="#6E54FF" />
    <circle cx="1060" cy="420" r="9" fill="#6E54FF" />
    <circle cx="720" cy="450" r="8" fill="#6E54FF" />
    <circle cx="560" cy="420" r="8" fill="#6E54FF" />
  </g>
</svg>
